<svg width="170" height="40" viewBox="0 0 170 40" fill="none" xmlns="http://www.w3.org/2000/svg">
<g clip-path="url(#clip0_5322_2811)">
<path d="M2.64238 29.7556H11.3245V26.9683H2.83112V10.2444H11.3245V7.45709L2.68446 7.49853H0V10.1415V27.028V29.7556H2.64238Z" fill="white"/>
<path d="M19.8178 4.85559H11.3245V7.43386L19.8178 7.45709L19.8363 24.3618H11.3245V26.9683H19.8363H22.4602V24.3618V7.45128V4.85559H19.8178Z" fill="white"/>
<path d="M25.1026 12.8459V29.5698H16.6093V32.3571H25.234H27.9337V29.7215V12.8818V10.2444H25.1026V12.8459Z" fill="white"/>
<path d="M8.12825 35.1445H16.6093V32.3572H8.12825H5.47351V35.1445H8.12825Z" fill="white"/>
</g>
<path d="M44.5651 29.0131C43.471 28.6674 42.623 28.1703 42.0211 27.5217C41.4192 26.8731 41.0601 26.0994 40.947 25.1941L40.9337 25.0887H44.5185L44.5318 25.1809C44.6649 25.8031 45.0639 26.2772 45.7323 26.5999C46.4007 26.9225 47.3319 27.0871 48.5257 27.0871C49.2507 27.0871 49.8659 27.018 50.3713 26.883C50.8768 26.748 51.2559 26.5472 51.512 26.2838C51.768 26.0204 51.8977 25.7044 51.8977 25.3356V25.3225C51.8977 24.8846 51.7215 24.5455 51.3723 24.3052C51.0231 24.0648 50.4046 23.8837 49.52 23.7586L46.1081 23.3241C45.0473 23.1759 44.1594 22.929 43.4544 22.58C42.7461 22.2343 42.2173 21.7932 41.8682 21.2598C41.519 20.7265 41.3427 20.0976 41.3427 19.3799V19.3668C41.3427 18.4647 41.6121 17.6877 42.1508 17.0325C42.6896 16.3807 43.4677 15.877 44.482 15.5214C45.4962 15.1658 46.6934 14.988 48.0734 14.988C49.5233 14.988 50.7671 15.1691 51.7979 15.5346C52.8288 15.8967 53.6236 16.4037 54.1856 17.0457C54.7476 17.691 55.0602 18.4416 55.1234 19.3009L55.1367 19.4458H51.7647L51.7514 19.3536C51.6616 18.784 51.3058 18.3264 50.6773 17.9807C50.0488 17.635 49.1908 17.4605 48.1034 17.4605C47.4316 17.4605 46.8563 17.5297 46.3841 17.6647C45.9119 17.7996 45.5461 17.9972 45.2967 18.2573C45.044 18.5141 44.9176 18.8235 44.9176 19.1857V19.1988C44.9176 19.4721 45.0007 19.7124 45.1637 19.9231C45.3266 20.1339 45.5827 20.3083 45.9352 20.4433C46.2844 20.5783 46.7466 20.6902 47.3219 20.7791L50.7737 21.2137C52.483 21.4343 53.7034 21.8524 54.4383 22.4747C55.1733 23.0969 55.5391 23.9496 55.5391 25.036V25.0492C55.5391 25.9678 55.2564 26.7678 54.6911 27.4427C54.1257 28.1176 53.311 28.6345 52.2535 28.9933C51.196 29.3522 49.9423 29.5333 48.4891 29.5333C46.9661 29.5333 45.6592 29.3588 44.5651 29.0131Z" fill="white"/>
<path d="M60.5472 28.6707C59.3201 28.0979 58.3823 27.2715 57.7339 26.1949C57.0854 25.1184 56.7595 23.8212 56.7595 22.3035V22.2903C56.7595 20.8088 57.0921 19.5215 57.7538 18.4252C58.4189 17.3289 59.35 16.4827 60.5472 15.8868C61.7477 15.2909 63.1477 14.9979 64.7472 15.0078C66.3767 15.0078 67.7734 15.3074 68.9439 15.9066C70.1112 16.5058 71.0124 17.3519 71.6442 18.4449C72.276 19.5347 72.592 20.8055 72.592 22.2508V23.1167H58.5719V20.9076H70.4537L69.1268 22.7084V21.7504C69.1268 20.8812 68.9506 20.1372 68.5948 19.5149C68.239 18.8927 67.7401 18.4219 67.095 18.1025C66.4499 17.7832 65.6784 17.6219 64.7838 17.6219C63.8893 17.6219 63.0546 17.7832 62.3862 18.1025C61.7178 18.4219 61.2023 18.9026 60.8398 19.5413C60.4774 20.18 60.2945 20.9602 60.2945 21.8821V22.6689C60.2945 23.65 60.5006 24.4566 60.913 25.0887C61.3254 25.7209 61.8874 26.1851 62.599 26.4814C63.3106 26.781 64.1187 26.9291 65.0199 26.9291C65.6484 26.9291 66.2237 26.8534 66.7458 26.6987C67.2679 26.5439 67.7169 26.3332 68.0926 26.06C68.4684 25.79 68.7444 25.4739 68.9207 25.1151L68.9606 25.0229H72.3858L72.3592 25.1678C72.173 25.8163 71.867 26.4056 71.438 26.9357C71.009 27.4658 70.4703 27.9267 69.8252 28.3217C69.1801 28.7168 68.4418 29.0164 67.6138 29.2205C66.7857 29.4247 65.8845 29.53 64.9135 29.53C63.2242 29.53 61.7643 29.2436 60.5405 28.6707" fill="white"/>
<path d="M81.4576 29.1745C80.7326 28.9374 80.0975 28.6082 79.5521 28.1901C79.0067 27.7687 78.5678 27.2682 78.2319 26.6921H78.1521V29.2304H74.5273V10.2637H78.1521V17.8326H78.2319C78.5678 17.2532 79.01 16.7527 79.5587 16.328C80.1074 15.9033 80.7459 15.5741 81.4775 15.3436C82.2091 15.1099 83.0205 14.9947 83.9151 14.9947C85.3583 14.9947 86.6087 15.2976 87.6662 15.9C88.7237 16.5058 89.5417 17.3519 90.117 18.4384C90.6923 19.5248 90.9783 20.7956 90.9783 22.2508V22.264C90.9783 23.7192 90.6923 24.9933 90.117 26.0896C89.5417 27.1859 88.7237 28.032 87.6595 28.6312C86.5987 29.2304 85.345 29.53 83.9018 29.53C82.9972 29.53 82.1858 29.4115 81.4609 29.1745M85.1787 26.1917C85.8505 25.8328 86.3692 25.3192 86.7317 24.6542C87.0942 23.9891 87.2771 23.1924 87.2771 22.2607V22.2475C87.2771 21.329 87.0975 20.5355 86.7384 19.8738C86.3792 19.2121 85.8605 18.6985 85.1787 18.3363C84.497 17.9742 83.6856 17.7898 82.7478 17.7898C81.8101 17.7898 81.012 17.9742 80.3269 18.3429C79.6419 18.7116 79.1065 19.2285 78.7274 19.9001C78.345 20.5718 78.1554 21.3586 78.1554 22.2607V22.2739C78.1554 23.1759 78.345 23.9595 78.7274 24.6278C79.1065 25.2929 79.6419 25.8098 80.3269 26.1785C81.012 26.5472 81.82 26.7316 82.7478 26.7316C83.6756 26.7316 84.5037 26.5505 85.1787 26.1917Z" fill="white"/>
<path d="M92.8738 15.3107L96.5119 15.3239V17.9906H96.5784C96.871 17.0721 97.3765 16.3478 98.0981 15.821C98.8197 15.2943 99.6977 15.0342 100.732 15.0342C100.978 15.0342 101.217 15.0441 101.444 15.0671C101.67 15.0901 101.856 15.1165 102.009 15.1527V18.2145C101.813 18.1717 101.58 18.1322 101.307 18.1026C101.031 18.0729 100.745 18.0565 100.443 18.0565C99.6378 18.0565 98.9395 18.2112 98.3508 18.5174C97.7622 18.8236 97.31 19.2713 96.9907 19.8574C96.6715 20.4434 96.5119 21.1677 96.5119 22.027V29.2304H92.8738V15.3107Z" fill="white"/>
<path d="M105.677 29.2328C104.813 28.897 104.141 28.4031 103.659 27.7545C103.176 27.106 102.934 26.3356 102.934 25.4401V25.4137C102.934 24.6071 103.143 23.9059 103.566 23.31C103.985 22.7141 104.626 22.2466 105.484 21.9042C106.342 21.5618 107.44 21.3642 108.777 21.3116L116.039 21.1009V23.2573L109.295 23.468C108.358 23.5042 107.662 23.6754 107.21 23.9882C106.758 24.3009 106.532 24.7224 106.532 25.2557V25.282C106.532 25.9207 106.821 26.4047 107.4 26.7274C107.978 27.05 108.74 27.2146 109.678 27.2146C110.615 27.2146 111.37 27.0829 112.049 26.813C112.724 26.5463 113.253 26.1677 113.628 25.6771C114.004 25.1866 114.194 24.6269 114.194 23.9948V20.5774C114.194 19.7379 113.884 19.0827 113.266 18.6185C112.647 18.1543 111.763 17.9205 110.612 17.9205C109.595 17.9205 108.783 18.0983 108.175 18.4539C107.566 18.8094 107.187 19.2802 107.027 19.8663L106.987 19.9716H103.576L103.602 19.8268C103.725 18.9411 104.081 18.1576 104.67 17.4728C105.258 16.788 106.06 16.2514 107.081 15.8563C108.098 15.4612 109.305 15.2637 110.705 15.2637C112.182 15.2637 113.452 15.4744 114.516 15.8958C115.577 16.3172 116.395 16.9131 116.964 17.6835C117.536 18.4539 117.822 19.3658 117.822 20.4161V29.4994H114.197V27.185H114.13C113.811 27.7019 113.386 28.1529 112.85 28.5381C112.315 28.9233 111.693 29.2196 110.985 29.427C110.276 29.6311 109.515 29.7365 108.7 29.7365C107.549 29.7365 106.542 29.5686 105.681 29.2295" fill="white"/>
<path d="M122.78 28.6312C121.722 28.032 120.907 27.1826 120.339 26.0896C119.767 24.9933 119.481 23.7192 119.481 22.264V22.2508C119.481 20.7956 119.767 19.5248 120.345 18.4384C120.921 17.3519 121.735 16.5058 122.786 15.9033C123.84 15.2976 125.087 14.998 126.531 14.998C127.425 14.998 128.233 15.1132 128.958 15.3469C129.683 15.5807 130.325 15.9066 130.877 16.3313C131.429 16.756 131.875 17.2564 132.211 17.8359H132.277V10.2637H135.902V29.2304H132.277V26.6954H132.211C131.875 27.2748 131.432 27.772 130.89 28.1934C130.345 28.6148 129.71 28.944 128.978 29.1778C128.247 29.4148 127.432 29.5333 126.531 29.5333C125.087 29.5333 123.837 29.2337 122.78 28.6345M130.122 26.1818C130.807 25.8131 131.339 25.2962 131.722 24.6311C132.101 23.9661 132.294 23.1825 132.294 22.2805V22.2673C132.294 21.3652 132.101 20.5783 131.715 19.9067C131.329 19.2351 130.797 18.7182 130.115 18.3495C129.434 17.9807 128.626 17.7964 127.688 17.7964C126.75 17.7964 125.955 17.9775 125.277 18.3429C124.599 18.7083 124.08 19.2186 123.717 19.8804C123.355 20.5421 123.172 21.3323 123.172 22.2541V22.2673C123.172 23.1957 123.355 23.9924 123.717 24.6608C124.08 25.3258 124.599 25.8394 125.277 26.1983C125.955 26.5571 126.757 26.7382 127.688 26.7382C128.619 26.7382 129.437 26.5538 130.125 26.1851" fill="white"/>
<path d="M141.648 28.6707C140.421 28.0979 139.483 27.2715 138.835 26.1949C138.186 25.1184 137.86 23.8212 137.86 22.3035V22.2903C137.86 20.8088 138.193 19.5215 138.855 18.4252C139.52 17.3289 140.451 16.4827 141.648 15.8868C142.849 15.2909 144.249 14.9979 145.848 15.0078C147.478 15.0078 148.874 15.3074 150.045 15.9066C151.212 16.5058 152.113 17.3519 152.745 18.4449C153.377 19.5347 153.693 20.8055 153.693 22.2508V23.1167H139.673V20.9076H151.555L150.228 22.7084V21.7504C150.228 20.8812 150.051 20.1372 149.696 19.5149C149.34 18.8927 148.841 18.4219 148.196 18.1025C147.551 17.7832 146.779 17.6219 145.885 17.6219C144.99 17.6219 144.155 17.7832 143.487 18.1025C142.819 18.4219 142.303 18.9026 141.941 19.5413C141.578 20.18 141.395 20.9602 141.395 21.8821V22.6689C141.395 23.65 141.602 24.4566 142.014 25.0887C142.426 25.7209 142.988 26.1851 143.7 26.4814C144.412 26.781 145.22 26.9291 146.121 26.9291C146.749 26.9291 147.325 26.8534 147.847 26.6987C148.369 26.5439 148.818 26.3332 149.194 26.06C149.569 25.79 149.845 25.4739 150.022 25.1151L150.061 25.0229H153.487L153.46 25.1678C153.274 25.8163 152.968 26.4056 152.539 26.9357C152.11 27.4658 151.571 27.9267 150.926 28.3217C150.281 28.7168 149.543 29.0164 148.715 29.2205C147.887 29.4247 146.985 29.53 146.014 29.53C144.325 29.53 142.865 29.2436 141.641 28.6707" fill="white"/>
<path d="M158.545 29.0131C157.451 28.6674 156.603 28.1703 156.001 27.5217C155.399 26.8731 155.04 26.0994 154.927 25.1941L154.913 25.0887H158.498L158.511 25.1809C158.644 25.8031 159.044 26.2772 159.712 26.5999C160.38 26.9225 161.311 27.0871 162.505 27.0871C163.23 27.0871 163.845 27.018 164.351 26.883C164.856 26.748 165.236 26.5472 165.492 26.2838C165.748 26.0204 165.877 25.7044 165.877 25.3356V25.3225C165.877 24.8846 165.701 24.5455 165.352 24.3052C165.003 24.0648 164.384 23.8837 163.5 23.7586L160.088 23.3241C159.027 23.1759 158.139 22.929 157.434 22.58C156.726 22.2343 156.197 21.7932 155.848 21.2598C155.499 20.7265 155.322 20.0976 155.322 19.3799V19.3668C155.322 18.4647 155.592 17.6877 156.13 17.0325C156.669 16.3807 157.447 15.877 158.462 15.5214C159.476 15.1658 160.673 14.988 162.053 14.988C163.503 14.988 164.747 15.1691 165.778 15.5346C166.808 15.8967 167.603 16.4037 168.165 17.0457C168.727 17.691 169.04 18.4416 169.103 19.3009L169.116 19.4458H165.744L165.731 19.3536C165.641 18.784 165.285 18.3264 164.657 17.9807C164.028 17.635 163.17 17.4605 162.083 17.4605C161.411 17.4605 160.836 17.5297 160.364 17.6647C159.892 17.7996 159.526 17.9972 159.276 18.2573C159.024 18.5141 158.897 18.8235 158.897 19.1857V19.1988C158.897 19.4721 158.98 19.7124 159.143 19.9231C159.306 20.1339 159.562 20.3083 159.915 20.4433C160.264 20.5783 160.726 20.6902 161.302 20.7791L164.753 21.2137C166.463 21.4343 167.683 21.8524 168.418 22.4747C169.153 23.0969 169.519 23.9496 169.519 25.036V25.0492C169.519 25.9678 169.236 26.7678 168.671 27.4427C168.105 28.1176 167.291 28.6345 166.233 28.9933C165.176 29.3522 163.922 29.5333 162.469 29.5333C160.946 29.5333 159.639 29.3588 158.545 29.0131Z" fill="white"/>
<defs>
<clipPath id="clip0_5322_2811">
<rect width="27.9337" height="30.2889" fill="white" transform="translate(0 4.85559)"/>
</clipPath>
</defs>
</svg>
